<svg width="139" height="76" viewBox="0 0 139 76" fill="none" xmlns="http://www.w3.org/2000/svg">
<path fill-rule="evenodd" clip-rule="evenodd" d="M64.1503 0.0672346C82.4898 0.769529 95.5062 9.31234 108.622 16.7381C121.925 24.2698 137.699 31.6565 138.895 42.3854C140.141 53.5648 130.21 64.7874 114.732 71.5563C100.665 77.7083 81.7372 75.9638 64.1503 75.0732C48.7029 74.2909 33.3204 72.791 21.7345 66.847C9.4461 60.5426 1.9086 51.8324 0.435603 42.3854C-1.19105 31.9529 1.44448 20.999 13.3526 13.0899C25.9823 4.70143 44.9293 -0.668817 64.1503 0.0672346Z" fill="white"/>
<path d="M41.12 43.76L39.14 44.9L51.04 25.68C51.4667 25.0267 51.9 24.5867 52.34 24.36C52.78 24.12 53.2267 24 53.68 24H58.94C59.3267 24 59.5933 24.0667 59.74 24.2C59.8867 24.3333 59.9533 24.5267 59.94 24.78C59.9267 25.0333 59.8333 25.24 59.66 25.4C59.5 25.5467 59.3 25.66 59.06 25.74L57.8 26C57.52 26.0667 57.2867 26.2133 57.1 26.44C56.9267 26.6533 56.8 26.9533 56.72 27.34C56.6267 27.8733 56.4867 28.6 56.3 29.52C56.1267 30.44 55.92 31.48 55.68 32.64C55.4533 33.7867 55.2133 35 54.96 36.28C54.7067 37.5467 54.4533 38.8067 54.2 40.06C53.96 41.3133 53.7333 42.5067 53.52 43.64C53.3067 44.76 53.12 45.7533 52.96 46.62C52.8 47.4733 52.6867 48.1267 52.62 48.58C52.54 48.9667 52.5467 49.2867 52.64 49.54C52.7467 49.78 52.9467 49.9467 53.24 50.04L54.54 50.32C54.7667 50.4 54.94 50.5 55.06 50.62C55.18 50.74 55.2333 50.9 55.22 51.1C55.2067 51.38 55.1 51.6 54.9 51.76C54.7 51.92 54.4067 52 54.02 52H44.62C44.2467 52 43.98 51.9267 43.82 51.78C43.6733 51.6333 43.6 51.4333 43.6 51.18C43.6133 50.94 43.7 50.7467 43.86 50.6C44.0333 50.4533 44.2267 50.3467 44.44 50.28L45.72 50C46.0533 49.92 46.32 49.7667 46.52 49.54C46.72 49.3 46.8733 48.94 46.98 48.46C47.14 47.62 47.32 46.7 47.52 45.7C47.72 44.7 47.9333 43.6467 48.16 42.54C48.3867 41.4333 48.6133 40.2933 48.84 39.12C49.08 37.9467 49.32 36.7667 49.56 35.58C49.8 34.38 50.0267 33.1933 50.24 32.02C50.4533 30.8467 50.6533 29.7133 50.84 28.62L51.4 28.5L39.54 48.06C39.18 48.58 38.86 48.9467 38.58 49.16C38.3 49.3733 37.96 49.48 37.56 49.48C37.2267 49.48 36.94 49.34 36.7 49.06C36.4733 48.78 36.3067 48.3933 36.2 47.9C36.0667 47.0067 35.9267 46.0667 35.78 45.08C35.6333 44.08 35.48 43.0467 35.32 41.98C35.1733 40.9 35.02 39.8 34.86 38.68C34.7 37.56 34.5333 36.4267 34.36 35.28C34.2 34.1333 34.0333 32.9933 33.86 31.86C33.6867 30.7267 33.5133 29.6067 33.34 28.5L34.04 28.36L28.58 47.16C28.3533 48.0267 28.3267 48.6867 28.5 49.14C28.6733 49.58 29.0267 49.88 29.56 50.04L30.48 50.3C30.9333 50.4867 31.1467 50.7467 31.12 51.08C31.1067 51.36 30.9867 51.5867 30.76 51.76C30.5467 51.92 30.2467 52 29.86 52H23.54C23.14 52 22.86 51.9267 22.7 51.78C22.54 51.62 22.4667 51.42 22.48 51.18C22.4933 50.9267 22.5867 50.7267 22.76 50.58C22.92 50.42 23.1267 50.3 23.38 50.22L24.18 50.02C24.5533 49.9133 24.8867 49.74 25.18 49.5C25.4867 49.26 25.78 48.8733 26.06 48.34C26.34 47.8067 26.6133 47.0533 26.88 46.08L32.2 27.6C32.3467 27.12 32.3733 26.7533 32.28 26.5C32.1867 26.2467 31.98 26.08 31.66 26L30.36 25.68C30.1333 25.5867 29.9667 25.48 29.86 25.36C29.7533 25.24 29.7067 25.08 29.72 24.88C29.72 24.6 29.8267 24.3867 30.04 24.24C30.2533 24.08 30.54 24 30.9 24H36.16C36.72 24 37.18 24.1467 37.54 24.44C37.9133 24.7333 38.1667 25.2467 38.3 25.98C38.4333 26.82 38.5733 27.7 38.72 28.62C38.8667 29.54 39.0133 30.4867 39.16 31.46C39.3067 32.4333 39.4533 33.4267 39.6 34.44C39.76 35.4533 39.92 36.48 40.08 37.52C40.24 38.5467 40.4067 39.5867 40.58 40.64C40.7667 41.68 40.9467 42.72 41.12 43.76ZM65.7047 46.36C65.358 47.3867 65.2314 48.1 65.3247 48.5C65.418 48.9 65.6314 49.1 65.9647 49.1C66.1647 49.1 66.378 49.0333 66.6047 48.9C66.8447 48.7533 67.138 48.5133 67.4847 48.18C67.7114 47.9667 67.898 47.84 68.0447 47.8C68.1914 47.7467 68.3314 47.7533 68.4647 47.82C68.638 47.9 68.7247 48.06 68.7247 48.3C68.7247 48.5267 68.638 48.8133 68.4647 49.16C67.9314 50.1467 67.1514 50.9467 66.1247 51.56C65.098 52.16 63.9247 52.46 62.6047 52.46C61.6447 52.46 60.9247 52.26 60.4447 51.86C59.9647 51.4467 59.718 50.8667 59.7047 50.12C59.6914 49.36 59.8714 48.4467 60.2447 47.38L63.1447 39.36C63.518 38.3467 63.6514 37.64 63.5447 37.24C63.4514 36.84 63.238 36.64 62.9047 36.64C62.7047 36.64 62.4847 36.7067 62.2447 36.84C62.0047 36.9733 61.7047 37.22 61.3447 37.58C61.118 37.7667 60.9314 37.8867 60.7847 37.94C60.638 37.98 60.498 37.9733 60.3647 37.92C60.2047 37.84 60.118 37.6867 60.1047 37.46C60.1047 37.2333 60.198 36.9533 60.3847 36.62C60.9447 35.5933 61.7314 34.7733 62.7447 34.16C63.7714 33.5333 64.918 33.22 66.1847 33.22C67.0647 33.22 67.738 33.42 68.2047 33.82C68.6847 34.22 68.958 34.8133 69.0247 35.6C69.0914 36.3733 68.918 37.34 68.5047 38.5L65.7047 46.36ZM67.4847 30.12C66.498 30.12 65.7447 29.8733 65.2247 29.38C64.7047 28.8733 64.4714 28.26 64.5247 27.54C64.5514 26.94 64.7447 26.3733 65.1047 25.84C65.478 25.2933 65.9847 24.8533 66.6247 24.52C67.2647 24.1867 68.0114 24.02 68.8647 24.02C69.918 24.02 70.6847 24.2733 71.1647 24.78C71.6447 25.2867 71.858 25.9 71.8047 26.62C71.778 27.26 71.578 27.8467 71.2047 28.38C70.8314 28.9133 70.3247 29.34 69.6847 29.66C69.058 29.9667 68.3247 30.12 67.4847 30.12ZM78.2609 50.82C79.0476 50.82 79.6743 50.6067 80.1409 50.18C80.6209 49.7533 80.8609 49.2067 80.8609 48.54C80.8743 48.14 80.7876 47.76 80.6009 47.4C80.4276 47.0267 80.1076 46.6267 79.6409 46.2C79.1743 45.7733 78.4943 45.26 77.6009 44.66C76.6143 43.98 75.8209 43.36 75.2209 42.8C74.6343 42.24 74.2076 41.6733 73.9409 41.1C73.6876 40.5133 73.5676 39.8533 73.5809 39.12C73.5943 38.0533 73.9343 37.0733 74.6009 36.18C75.2676 35.2733 76.2276 34.5533 77.4809 34.02C78.7476 33.4733 80.2676 33.2 82.0409 33.2C83.4409 33.2 84.6076 33.38 85.5409 33.74C86.4743 34.1 87.1809 34.5867 87.6609 35.2C88.1409 35.8 88.3809 36.4667 88.3809 37.2C88.3809 37.8667 88.2343 38.38 87.9409 38.74C87.6609 39.1 87.2743 39.28 86.7809 39.28C86.2876 39.28 85.8609 39.12 85.5009 38.8C85.1543 38.48 84.8143 37.92 84.4809 37.12C84.1076 36.3333 83.6743 35.74 83.1809 35.34C82.6876 34.94 82.1009 34.74 81.4209 34.74C80.5943 34.74 79.9276 34.9667 79.4209 35.42C78.9276 35.8733 78.6809 36.4733 78.6809 37.22C78.6809 37.62 78.7676 38.02 78.9409 38.42C79.1143 38.8067 79.4409 39.24 79.9209 39.72C80.4143 40.2 81.1209 40.78 82.0409 41.46C83.1076 42.1933 83.9343 42.8533 84.5209 43.44C85.1076 44.0133 85.5076 44.58 85.7209 45.14C85.9476 45.6867 86.0543 46.3067 86.0409 47C86.0276 48.0533 85.6743 48.9933 84.9809 49.82C84.3009 50.6467 83.3409 51.2933 82.1009 51.76C80.8743 52.2267 79.4276 52.46 77.7609 52.46C76.2276 52.46 74.9543 52.26 73.9409 51.86C72.9276 51.4467 72.1743 50.9067 71.6809 50.24C71.1876 49.5733 70.9409 48.86 70.9409 48.1C70.9543 47.5 71.1009 47.02 71.3809 46.66C71.6609 46.3 72.0409 46.12 72.5209 46.12C73.0809 46.12 73.5476 46.3 73.9209 46.66C74.2943 47.02 74.6476 47.5867 74.9809 48.36C75.4476 49.2667 75.9409 49.9067 76.4609 50.28C76.9943 50.64 77.5943 50.82 78.2609 50.82ZM92.2706 43.68C92.2706 43.68 92.5106 43.6 92.9906 43.44C93.4706 43.2667 94.0973 43.0533 94.8706 42.8C95.644 42.5333 96.4706 42.2467 97.3506 41.94C98.2306 41.6333 99.0906 41.34 99.9306 41.06C100.771 40.7667 101.484 40.5133 102.071 40.3L101.511 40.98C101.644 40.58 101.751 40.1133 101.831 39.58C101.911 39.0467 101.951 38.4333 101.951 37.74C101.951 36.9 101.791 36.2267 101.471 35.72C101.164 35.2 100.731 34.94 100.171 34.94C99.6373 34.94 99.0906 35.1467 98.5306 35.56C97.9706 35.9733 97.444 36.56 96.9506 37.32C96.4706 38.0667 96.0573 38.9533 95.7106 39.98C95.364 41.0067 95.1373 42.14 95.0306 43.38C94.8573 45.3267 95.1173 46.8067 95.8106 47.82C96.5173 48.82 97.5706 49.32 98.9706 49.32C99.7306 49.32 100.464 49.18 101.171 48.9C101.877 48.6067 102.517 48.1867 103.091 47.64C103.677 47.08 104.164 46.4133 104.551 45.64C104.777 45.32 104.977 45.1067 105.151 45C105.324 44.88 105.511 44.8267 105.711 44.84C105.951 44.8533 106.137 44.9667 106.271 45.18C106.404 45.38 106.417 45.7067 106.311 46.16C106.031 47.2667 105.471 48.3067 104.631 49.28C103.804 50.24 102.711 51.0133 101.351 51.6C100.004 52.1733 98.3973 52.46 96.5306 52.46C94.8373 52.46 93.444 52.1533 92.3506 51.54C91.2706 50.9267 90.4906 50.0467 90.0106 48.9C89.544 47.74 89.3773 46.3667 89.5106 44.78C89.644 43.1933 90.0373 41.7 90.6906 40.3C91.344 38.9 92.1906 37.6667 93.2306 36.6C94.284 35.5333 95.484 34.7 96.8306 34.1C98.1773 33.5 99.604 33.2 101.111 33.2C102.297 33.2 103.277 33.42 104.051 33.86C104.824 34.2867 105.411 34.8667 105.811 35.6C106.224 36.3333 106.464 37.1533 106.531 38.06C106.557 38.2867 106.617 38.48 106.711 38.64C106.804 38.8 106.944 38.8867 107.131 38.9C107.304 38.9267 107.437 38.9867 107.531 39.08C107.624 39.16 107.671 39.2867 107.671 39.46C107.671 39.6733 107.584 39.8733 107.411 40.06C107.237 40.2467 106.897 40.42 106.391 40.58C105.884 40.74 105.191 40.96 104.311 41.24C103.431 41.52 102.464 41.8333 101.411 42.18C100.371 42.5133 99.324 42.8533 98.2706 43.2C97.2173 43.5467 96.2506 43.8667 95.3706 44.16C94.4906 44.44 93.784 44.6733 93.2506 44.86C92.7173 45.0333 92.4506 45.12 92.4506 45.12L92.2706 43.68Z" fill="#2E4442"/>
</svg>
