<svg width="139" height="76" viewBox="0 0 139 76" fill="none" xmlns="http://www.w3.org/2000/svg">
<path fill-rule="evenodd" clip-rule="evenodd" d="M64.1503 0.0672346C82.4898 0.769529 95.5062 9.31234 108.622 16.7381C121.925 24.2698 137.699 31.6565 138.895 42.3854C140.141 53.5648 130.21 64.7874 114.732 71.5563C100.665 77.7083 81.7372 75.9638 64.1503 75.0732C48.7029 74.2909 33.3204 72.791 21.7345 66.847C9.4461 60.5426 1.9086 51.8324 0.435603 42.3854C-1.19105 31.9529 1.44448 20.999 13.3526 13.0899C25.9823 4.70143 44.9293 -0.668817 64.1503 0.0672346Z" fill="#2E4442"/>
<path d="M45.12 43.76L43.14 44.9L55.04 25.68C55.4667 25.0267 55.9 24.5867 56.34 24.36C56.78 24.12 57.2267 24 57.68 24H62.94C63.3267 24 63.5933 24.0667 63.74 24.2C63.8867 24.3333 63.9533 24.5267 63.94 24.78C63.9267 25.0333 63.8333 25.24 63.66 25.4C63.5 25.5467 63.3 25.66 63.06 25.74L61.8 26C61.52 26.0667 61.2867 26.2133 61.1 26.44C60.9267 26.6533 60.8 26.9533 60.72 27.34C60.6267 27.8733 60.4867 28.6 60.3 29.52C60.1267 30.44 59.92 31.48 59.68 32.64C59.4533 33.7867 59.2133 35 58.96 36.28C58.7067 37.5467 58.4533 38.8067 58.2 40.06C57.96 41.3133 57.7333 42.5067 57.52 43.64C57.3067 44.76 57.12 45.7533 56.96 46.62C56.8 47.4733 56.6867 48.1267 56.62 48.58C56.54 48.9667 56.5467 49.2867 56.64 49.54C56.7467 49.78 56.9467 49.9467 57.24 50.04L58.54 50.32C58.7667 50.4 58.94 50.5 59.06 50.62C59.18 50.74 59.2333 50.9 59.22 51.1C59.2067 51.38 59.1 51.6 58.9 51.76C58.7 51.92 58.4067 52 58.02 52H48.62C48.2467 52 47.98 51.9267 47.82 51.78C47.6733 51.6333 47.6 51.4333 47.6 51.18C47.6133 50.94 47.7 50.7467 47.86 50.6C48.0333 50.4533 48.2267 50.3467 48.44 50.28L49.72 50C50.0533 49.92 50.32 49.7667 50.52 49.54C50.72 49.3 50.8733 48.94 50.98 48.46C51.14 47.62 51.32 46.7 51.52 45.7C51.72 44.7 51.9333 43.6467 52.16 42.54C52.3867 41.4333 52.6133 40.2933 52.84 39.12C53.08 37.9467 53.32 36.7667 53.56 35.58C53.8 34.38 54.0267 33.1933 54.24 32.02C54.4533 30.8467 54.6533 29.7133 54.84 28.62L55.4 28.5L43.54 48.06C43.18 48.58 42.86 48.9467 42.58 49.16C42.3 49.3733 41.96 49.48 41.56 49.48C41.2267 49.48 40.94 49.34 40.7 49.06C40.4733 48.78 40.3067 48.3933 40.2 47.9C40.0667 47.0067 39.9267 46.0667 39.78 45.08C39.6333 44.08 39.48 43.0467 39.32 41.98C39.1733 40.9 39.02 39.8 38.86 38.68C38.7 37.56 38.5333 36.4267 38.36 35.28C38.2 34.1333 38.0333 32.9933 37.86 31.86C37.6867 30.7267 37.5133 29.6067 37.34 28.5L38.04 28.36L32.58 47.16C32.3533 48.0267 32.3267 48.6867 32.5 49.14C32.6733 49.58 33.0267 49.88 33.56 50.04L34.48 50.3C34.9333 50.4867 35.1467 50.7467 35.12 51.08C35.1067 51.36 34.9867 51.5867 34.76 51.76C34.5467 51.92 34.2467 52 33.86 52H27.54C27.14 52 26.86 51.9267 26.7 51.78C26.54 51.62 26.4667 51.42 26.48 51.18C26.4933 50.9267 26.5867 50.7267 26.76 50.58C26.92 50.42 27.1267 50.3 27.38 50.22L28.18 50.02C28.5533 49.9133 28.8867 49.74 29.18 49.5C29.4867 49.26 29.78 48.8733 30.06 48.34C30.34 47.8067 30.6133 47.0533 30.88 46.08L36.2 27.6C36.3467 27.12 36.3733 26.7533 36.28 26.5C36.1867 26.2467 35.98 26.08 35.66 26L34.36 25.68C34.1333 25.5867 33.9667 25.48 33.86 25.36C33.7533 25.24 33.7067 25.08 33.72 24.88C33.72 24.6 33.8267 24.3867 34.04 24.24C34.2533 24.08 34.54 24 34.9 24H40.16C40.72 24 41.18 24.1467 41.54 24.44C41.9133 24.7333 42.1667 25.2467 42.3 25.98C42.4333 26.82 42.5733 27.7 42.72 28.62C42.8667 29.54 43.0133 30.4867 43.16 31.46C43.3067 32.4333 43.4533 33.4267 43.6 34.44C43.76 35.4533 43.92 36.48 44.08 37.52C44.24 38.5467 44.4067 39.5867 44.58 40.64C44.7667 41.68 44.9467 42.72 45.12 43.76ZM69.7047 46.36C69.358 47.3867 69.2314 48.1 69.3247 48.5C69.418 48.9 69.6314 49.1 69.9647 49.1C70.1647 49.1 70.378 49.0333 70.6047 48.9C70.8447 48.7533 71.138 48.5133 71.4847 48.18C71.7114 47.9667 71.898 47.84 72.0447 47.8C72.1914 47.7467 72.3314 47.7533 72.4647 47.82C72.638 47.9 72.7247 48.06 72.7247 48.3C72.7247 48.5267 72.638 48.8133 72.4647 49.16C71.9314 50.1467 71.1514 50.9467 70.1247 51.56C69.098 52.16 67.9247 52.46 66.6047 52.46C65.6447 52.46 64.9247 52.26 64.4447 51.86C63.9647 51.4467 63.718 50.8667 63.7047 50.12C63.6914 49.36 63.8714 48.4467 64.2447 47.38L67.1447 39.36C67.518 38.3467 67.6514 37.64 67.5447 37.24C67.4514 36.84 67.238 36.64 66.9047 36.64C66.7047 36.64 66.4847 36.7067 66.2447 36.84C66.0047 36.9733 65.7047 37.22 65.3447 37.58C65.118 37.7667 64.9314 37.8867 64.7847 37.94C64.638 37.98 64.498 37.9733 64.3647 37.92C64.2047 37.84 64.118 37.6867 64.1047 37.46C64.1047 37.2333 64.198 36.9533 64.3847 36.62C64.9447 35.5933 65.7314 34.7733 66.7447 34.16C67.7714 33.5333 68.918 33.22 70.1847 33.22C71.0647 33.22 71.738 33.42 72.2047 33.82C72.6847 34.22 72.958 34.8133 73.0247 35.6C73.0914 36.3733 72.918 37.34 72.5047 38.5L69.7047 46.36ZM71.4847 30.12C70.498 30.12 69.7447 29.8733 69.2247 29.38C68.7047 28.8733 68.4714 28.26 68.5247 27.54C68.5514 26.94 68.7447 26.3733 69.1047 25.84C69.478 25.2933 69.9847 24.8533 70.6247 24.52C71.2647 24.1867 72.0114 24.02 72.8647 24.02C73.918 24.02 74.6847 24.2733 75.1647 24.78C75.6447 25.2867 75.858 25.9 75.8047 26.62C75.778 27.26 75.578 27.8467 75.2047 28.38C74.8314 28.9133 74.3247 29.34 73.6847 29.66C73.058 29.9667 72.3247 30.12 71.4847 30.12ZM82.2609 50.82C83.0476 50.82 83.6743 50.6067 84.1409 50.18C84.6209 49.7533 84.8609 49.2067 84.8609 48.54C84.8743 48.14 84.7876 47.76 84.6009 47.4C84.4276 47.0267 84.1076 46.6267 83.6409 46.2C83.1743 45.7733 82.4943 45.26 81.6009 44.66C80.6143 43.98 79.8209 43.36 79.2209 42.8C78.6343 42.24 78.2076 41.6733 77.9409 41.1C77.6876 40.5133 77.5676 39.8533 77.5809 39.12C77.5943 38.0533 77.9343 37.0733 78.6009 36.18C79.2676 35.2733 80.2276 34.5533 81.4809 34.02C82.7476 33.4733 84.2676 33.2 86.0409 33.2C87.4409 33.2 88.6076 33.38 89.5409 33.74C90.4743 34.1 91.1809 34.5867 91.6609 35.2C92.1409 35.8 92.3809 36.4667 92.3809 37.2C92.3809 37.8667 92.2343 38.38 91.9409 38.74C91.6609 39.1 91.2743 39.28 90.7809 39.28C90.2876 39.28 89.8609 39.12 89.5009 38.8C89.1543 38.48 88.8143 37.92 88.4809 37.12C88.1076 36.3333 87.6743 35.74 87.1809 35.34C86.6876 34.94 86.1009 34.74 85.4209 34.74C84.5943 34.74 83.9276 34.9667 83.4209 35.42C82.9276 35.8733 82.6809 36.4733 82.6809 37.22C82.6809 37.62 82.7676 38.02 82.9409 38.42C83.1143 38.8067 83.4409 39.24 83.9209 39.72C84.4143 40.2 85.1209 40.78 86.0409 41.46C87.1076 42.1933 87.9343 42.8533 88.5209 43.44C89.1076 44.0133 89.5076 44.58 89.7209 45.14C89.9476 45.6867 90.0543 46.3067 90.0409 47C90.0276 48.0533 89.6743 48.9933 88.9809 49.82C88.3009 50.6467 87.3409 51.2933 86.1009 51.76C84.8743 52.2267 83.4276 52.46 81.7609 52.46C80.2276 52.46 78.9543 52.26 77.9409 51.86C76.9276 51.4467 76.1743 50.9067 75.6809 50.24C75.1876 49.5733 74.9409 48.86 74.9409 48.1C74.9543 47.5 75.1009 47.02 75.3809 46.66C75.6609 46.3 76.0409 46.12 76.5209 46.12C77.0809 46.12 77.5476 46.3 77.9209 46.66C78.2943 47.02 78.6476 47.5867 78.9809 48.36C79.4476 49.2667 79.9409 49.9067 80.4609 50.28C80.9943 50.64 81.5943 50.82 82.2609 50.82ZM96.2706 43.68C96.2706 43.68 96.5106 43.6 96.9906 43.44C97.4706 43.2667 98.0973 43.0533 98.8706 42.8C99.644 42.5333 100.471 42.2467 101.351 41.94C102.231 41.6333 103.091 41.34 103.931 41.06C104.771 40.7667 105.484 40.5133 106.071 40.3L105.511 40.98C105.644 40.58 105.751 40.1133 105.831 39.58C105.911 39.0467 105.951 38.4333 105.951 37.74C105.951 36.9 105.791 36.2267 105.471 35.72C105.164 35.2 104.731 34.94 104.171 34.94C103.637 34.94 103.091 35.1467 102.531 35.56C101.971 35.9733 101.444 36.56 100.951 37.32C100.471 38.0667 100.057 38.9533 99.7106 39.98C99.364 41.0067 99.1373 42.14 99.0306 43.38C98.8573 45.3267 99.1173 46.8067 99.8106 47.82C100.517 48.82 101.571 49.32 102.971 49.32C103.731 49.32 104.464 49.18 105.171 48.9C105.877 48.6067 106.517 48.1867 107.091 47.64C107.677 47.08 108.164 46.4133 108.551 45.64C108.777 45.32 108.977 45.1067 109.151 45C109.324 44.88 109.511 44.8267 109.711 44.84C109.951 44.8533 110.137 44.9667 110.271 45.18C110.404 45.38 110.417 45.7067 110.311 46.16C110.031 47.2667 109.471 48.3067 108.631 49.28C107.804 50.24 106.711 51.0133 105.351 51.6C104.004 52.1733 102.397 52.46 100.531 52.46C98.8373 52.46 97.444 52.1533 96.3506 51.54C95.2706 50.9267 94.4906 50.0467 94.0106 48.9C93.544 47.74 93.3773 46.3667 93.5106 44.78C93.644 43.1933 94.0373 41.7 94.6906 40.3C95.344 38.9 96.1906 37.6667 97.2306 36.6C98.284 35.5333 99.484 34.7 100.831 34.1C102.177 33.5 103.604 33.2 105.111 33.2C106.297 33.2 107.277 33.42 108.051 33.86C108.824 34.2867 109.411 34.8667 109.811 35.6C110.224 36.3333 110.464 37.1533 110.531 38.06C110.557 38.2867 110.617 38.48 110.711 38.64C110.804 38.8 110.944 38.8867 111.131 38.9C111.304 38.9267 111.437 38.9867 111.531 39.08C111.624 39.16 111.671 39.2867 111.671 39.46C111.671 39.6733 111.584 39.8733 111.411 40.06C111.237 40.2467 110.897 40.42 110.391 40.58C109.884 40.74 109.191 40.96 108.311 41.24C107.431 41.52 106.464 41.8333 105.411 42.18C104.371 42.5133 103.324 42.8533 102.271 43.2C101.217 43.5467 100.251 43.8667 99.3706 44.16C98.4906 44.44 97.784 44.6733 97.2506 44.86C96.7173 45.0333 96.4506 45.12 96.4506 45.12L96.2706 43.68Z" fill="white"/>
</svg>
